<svg width="18" height="18" viewBox="0 0 18 18" fill="none" xmlns="http://www.w3.org/2000/svg">
<path d="M16.5 17.3333C16.25 17.3333 16.0833 17.25 15.9166 17.0833L12.8333 14C11.5833 15 9.91662 15.6667 8.16662 15.6667C3.99996 15.6667 0.666626 12.3333 0.666626 8.16666C0.666626 4 3.99996 0.666666 8.16662 0.666666C12.3333 0.666666 15.6666 4 15.6666 8.16666C15.6666 9.91666 15.0833 11.5833 14 12.8333L17.0833 15.9167C17.4166 16.25 17.4166 16.75 17.0833 17.0833C16.9166 17.25 16.75 17.3333 16.5 17.3333ZM8.16662 2.33333C4.91663 2.33333 2.33329 4.91667 2.33329 8.16666C2.33329 11.4167 4.91663 14 8.16662 14C9.74996 14 11.1666 13.3333 12.25 12.3333C12.25 12.3333 12.25 12.25 12.3333 12.25C12.4166 12.25 12.4166 12.1667 12.4166 12.1667C13.4166 11.0833 14.0833 9.66666 14.0833 8.08333C14 4.91667 11.4166 2.33333 8.16662 2.33333Z" fill="white"/>
</svg>
