<svg width="30" height="30" viewBox="0 0 30 30" fill="none" xmlns="http://www.w3.org/2000/svg">
<path d="M13.75 3.75C13.75 3.05964 14.3096 2.5 15 2.5C15.6904 2.5 16.25 3.05964 16.25 3.75V5C16.25 5.69036 15.6904 6.25 15 6.25C14.3096 6.25 13.75 5.69036 13.75 5V3.75Z" fill="black"/>
<path fill-rule="evenodd" clip-rule="evenodd" d="M15 22.5C19.1421 22.5 22.5 19.1421 22.5 15C22.5 10.8579 19.1421 7.5 15 7.5C10.8579 7.5 7.5 10.8579 7.5 15C7.5 19.1421 10.8579 22.5 15 22.5ZM15 20C17.7614 20 20 17.7614 20 15C20 12.2386 17.7614 10 15 10C12.2386 10 10 12.2386 10 15C10 17.7614 12.2386 20 15 20Z" fill="black"/>
<path d="M27.5 15C27.5 14.3096 26.9404 13.75 26.25 13.75H25C24.3096 13.75 23.75 14.3096 23.75 15C23.75 15.6904 24.3096 16.25 25 16.25H26.25C26.9404 16.25 27.5 15.6904 27.5 15Z" fill="black"/>
<path d="M16.25 26.25C16.25 26.9404 15.6904 27.5 15 27.5C14.3096 27.5 13.75 26.9404 13.75 26.25V25C13.75 24.3096 14.3096 23.75 15 23.75C15.6904 23.75 16.25 24.3096 16.25 25V26.25Z" fill="black"/>
<path d="M2.5 15C2.5 15.6904 3.05964 16.25 3.75 16.25H5C5.69036 16.25 6.25 15.6904 6.25 15C6.25 14.3096 5.69036 13.75 5 13.75H3.75C3.05964 13.75 2.5 14.3096 2.5 15Z" fill="black"/>
<path d="M6.16117 7.92856C5.67302 7.44041 5.67302 6.64895 6.16117 6.16079C6.64933 5.67264 7.44079 5.67264 7.92894 6.16079L8.81282 7.04468C9.30098 7.53283 9.30098 8.32429 8.81282 8.81244C8.32467 9.3006 7.53321 9.3006 7.04506 8.81244L6.16117 7.92856Z" fill="black"/>
<path d="M23.8388 6.16098C23.3507 5.67283 22.5592 5.67283 22.0711 6.16098L21.1872 7.04487C20.699 7.53302 20.699 8.32448 21.1872 8.81263C21.6753 9.30079 22.4668 9.30079 22.9549 8.81263L23.8388 7.92875C24.327 7.44059 24.327 6.64914 23.8388 6.16098Z" fill="black"/>
<path d="M22.0711 23.8392L21.1872 22.9553C20.699 22.4672 20.699 21.6757 21.1872 21.1876C21.6753 20.6994 22.4668 20.6994 22.9549 21.1876L23.8388 22.0714C24.327 22.5596 24.327 23.351 23.8388 23.8392C23.3507 24.3274 22.5592 24.3274 22.0711 23.8392Z" fill="black"/>
<path d="M6.16116 23.839C6.64931 24.3272 7.44077 24.3272 7.92892 23.839L8.81281 22.9551C9.30096 22.467 9.30096 21.6755 8.81281 21.1874C8.32465 20.6992 7.5332 20.6992 7.04504 21.1874L6.16116 22.0712C5.673 22.5594 5.673 23.3509 6.16116 23.839Z" fill="black"/>
</svg>
