<svg width="20" height="20" viewBox="0 0 20 20" fill="none" xmlns="http://www.w3.org/2000/svg">
<path fill-rule="evenodd" clip-rule="evenodd" d="M9.24965 2.25522C9.42279 2.57989 9.36251 2.97969 9.10133 3.23887C8.11144 4.22118 7.49996 5.58032 7.49996 7.08384C7.49996 10.0754 9.92508 12.5005 12.9166 12.5005C14.42 12.5005 15.779 11.8892 16.7612 10.8995C17.0204 10.6383 17.4202 10.5781 17.7449 10.7513C18.0696 10.9244 18.2422 11.2901 18.1697 11.6508C17.4034 15.4625 14.0379 18.3336 9.99996 18.3336C5.39759 18.3336 1.66663 14.6026 1.66663 10.0002C1.66663 5.96203 4.53811 2.59636 8.35017 1.83035C8.71092 1.75786 9.0765 1.93055 9.24965 2.25522Z" fill="white"/>
</svg>
