<svg width="14" height="14" viewBox="0 0 14 14" fill="none" xmlns="http://www.w3.org/2000/svg">
<path d="M11.9334 3.86666H10.1334V2.06666C10.1334 1.13333 9.33337 0.333328 8.40004 0.333328H2.06671C1.06671 0.333328 0.333374 1.13333 0.333374 2.06666V8.4C0.333374 9.33333 1.13337 10.1333 2.06671 10.1333H3.86671V11.9333C3.86671 12.8667 4.66671 13.6667 5.60004 13.6667H11.9334C12.8667 13.6667 13.6667 12.8667 13.6667 11.9333V5.59999C13.6667 4.66666 12.8667 3.86666 11.9334 3.86666ZM2.06671 8.8C1.86671 8.8 1.66671 8.6 1.66671 8.4V2.06666C1.66671 1.86666 1.80004 1.66666 2.06671 1.66666H8.40004C8.60004 1.66666 8.80004 1.86666 8.80004 2.06666V3.86666H5.60004C4.66671 3.86666 3.86671 4.66666 3.86671 5.59999V8.8H2.06671ZM12.3334 11.9333C12.3334 12.1333 12.1334 12.3333 11.9334 12.3333H5.60004C5.40004 12.3333 5.20004 12.1333 5.20004 11.9333V10.1333V5.59999C5.20004 5.39999 5.40004 5.2 5.60004 5.2H10.1334H11.9334C12.1334 5.2 12.3334 5.39999 12.3334 5.59999V11.9333Z" fill="#9080FF"/>
</svg>
