<svg fill="none" height="20" viewBox="0 0 20 20" width="20" xmlns="http://www.w3.org/2000/svg"><path d="m10 20c5.5228 0 10-4.4772 10-10 0-5.52285-4.4772-10-10-10-5.52285 0-10 4.47715-10 10 0 5.5228 4.47715 10 10 10z" fill="#8dc351"/><path d="m13.2544 6.58377c-.485-1.2325-1.7013-1.34375-3.1175-1.06875l-.5044-1.75812-1.07.30687.49125 1.7125c-.28125.08-.5675.16875-.85187.25625l-.49375-1.72375-1.06938.30625.50313 1.75813c-.23.07125-.45625.14125-.67813.205l-.00187-.00625-1.47625.42312.32812 1.14375s.78625-.2425.77688-.22375c.43375-.12437.64687.08688.75.2925l1.38125 4.81628c.02.1418.0025.3825-.3.47.01687.0081-.77875.2225-.77875.2225l.15437 1.3393 1.3925-.4c.25938-.0731.51563-.1418.76625-.2125l.51063 1.7782 1.06872-.3063-.5043-1.7594c.2866-.076.5725-.1552.8575-.2375l.5012 1.7519 1.0706-.3069-.5087-1.775c1.7694-.6193 2.8987-1.4337 2.5706-3.1687-.2638-1.39625-1.0775-1.82-2.1694-1.7725.53-.49375.7582-1.16188.4013-2.06313zm-.4063 4.23123c.3813 1.3294-1.9375 1.8306-2.6625 2.0394l-.6756-2.3563c.725-.2081 2.94-1.0687 3.3375.3175zm-1.4512-3.18123c.3462 1.20938-1.5919 1.6125-2.19627 1.78563l-.6125-2.13688c.60375-.17312 2.44687-.90937 2.80877.35188z" fill="#fff"/></svg>