<svg fill="none" height="20" viewBox="0 0 21 20" width="21" xmlns="http://www.w3.org/2000/svg"><g fill="#000"><path d="m1.26392.093811c-.414218 0-.750004.335786-.750004.75 0 .414209.335786.749999.750004.749999zm17.73608 14.656189c.4142 0 .75-.3358.75-.75s-.3358-.75-.75-.75zm-15-12.25-.68548.30466.00584.01251zm15.4266 1.35847-.6872-.30048zm-.9036-1.35846v.75zm-14.99515-1.06234-.68536.30461zm-2.26393.15614h1.35012v-1.499999h-1.35012zm6.23608 8.40619c-.41602-.62403-.41617-.62393-.41632-.62383-.00006.00004-.00022.00014-.00034.00022-.00023.00016-.00049.00033-.00077.00052-.00056.00037-.00121.00081-.00196.00131-.00149.001-.00334.00225-.00555.00375-.00441.00299-.01024.00696-.01738.01188-.01429.00984-.03389.02352-.05806.04078-.04826.03447-.11512.08354-.19445.14524-.15742.12244-.37001.29932-.5855.51483-.2131.2131-.44551.4802-.62841.7851-.1805.3008-.34126.6858-.34126 1.1202h1.5c0-.0656.02674-.1806.12749-.3485.09835-.1639.24094-.3343.40284-.4962.15951-.1595.32192-.2951.44575-.3914.0613-.0477.11162-.0845.14539-.1087.01685-.012.02948-.0208.03716-.0261.00384-.0026.00644-.0044.0077-.0053.00063-.0004.00093-.0006.00088-.0005-.00002 0-.00013 0-.00033.0002-.0001 0-.00022.0001-.00036.0002-.00007.0001-.0002.0001-.00023.0002-.00013.0001-.00027.0001-.41629-.6239zm-2.25 2c0 .6113.15054 1.2654.50096 1.791.36524.5479.95811.959 1.74904.959v-1.5c-.20907 0-.3662-.0889-.50096-.291-.14958-.2244-.24904-.5703-.24904-.959zm2.25 2.75h.00597.00618.0064.00662.00683.00704.00725.00747.00767.00789.00809.0083.00851.00871.00892.00912.00933.00952.00973.00993.01013.01033.01052.01073.01091.01112.01131.0115.01169.01188.01208.01226.01246.01264.01283.01301.0132.01339.01357.01375.01393.01411.0143.01447.01465.01483.015.01518.01535.01553.0157.01587.01604.01622.01638.01655.01672.01688.01705.01721.01738.01754.01771.01786.01802.01819.01834.0185.01866.01881.01896.01913.01927.01943.01957.01973.01988.02002.02018.02032.02046.02061.02076.0209.02104.02118.02132.02147.0216.02174.02187.02202.02214.02228.02242.02255.02268.02281.02294.02306.0232.02333.02345.02357.0237.02382.02395.02407.02419.02431.02442.02455.02466.02478.0249.02501.02512.02524.02535.02546.02556.02568.02579.0259.026.0261.02621.02632.02642.02652.02662.02672.02683.02692.02701.02712.02721.0273.02738.0275.0276.0277.0277.0279.0279.0281.0281.0282.0283.0284.0284.0286.0286.0287.0288.0288.029.029.0291.0292.0292.0293.0294.0295.0295.0296.0297.0297.0298.0299.0299.03.0301.0301.0302.0302.0304.0303.0305.0304.0306.0306.0306.0307.0308.0308.0309.0309.031.031.031.0311.0312.0312.0312.0313.0313.0314.0314.0314.0315.0315.0316.0316.0316.0317.0317.0317.0318.0318.0318.0318.0319.0319.032.0319.032.032.032.0321.0321.032.0321.0322.0321.0322.0322.0321.0322.0323.0322.0322.0323.0322.0323.0323.0323.0322.0323.0323.0323.0323.0323.0323.0323.0323.0323.0323.0323.0323.0322.0323.0323.0322.0323.0322.0322.0322.0322.0322.0322.0321.0322.0321.0321.032.0321.032.0321.0319.032.032.0319.0319.0318.0319.0318.0317.0318.0317.0317.0316.0316.0316.0315.0315.0315.0314.0314.0313.0313.0313.0312.0312.0311.0311.031.031.0309.0309.0308.0308.0307.0307.0306.0306.0305.0305.0304.0303.0303.0302.0301.0301.03.03.0299.0298.0298.0297.0296.0296.0295.0294.0293.0293.0292.0291.0291.029.0288.0289.0287.0286.0286.0285.0284.0283.0283.0281.0281.028.0279.0278.0277.0276.0275.0275.0273.0273.0271.0271.0269.0269.0268.0266.0266.0264.0264.0263.0261.0261.0259.0258.0257.0257.0255.0254.0252.0252.0251.0249.0248.0247.0246.0245.0244.0242.0241.024.0239.0237.0237.0235.0233.0233.0231.023.0229.0227.0226.0225.0223.0222.0221.0219.0218.0216.0216.0213.0213.0211.0209.0208.0207.0205.0204.0202.0201.02.0197.0197.0195.0193.0192.019.0189.0187.0186.0184.0182.0181.0179.0178.0176.0175.0172.0172.0169.0168.0166.0165.0162.0161.016.0158.0156.0154.0152.0151.0149.0147.0146.0143.0142.014.0138.0137.0134.0133.0131.0129.0127.0126.0123.0121.012.0118.0116.0113.0112.011.0108.0106.0104.0102.0101.0098.0096.0094.0092.009.0088.0086.0084.0081.008.0078.0075.0073.0072.0069.0067.0065.0062.0061.0058.0057.0054.0051.005.0047.0045.0043.0041.0039.0036.0034.0031.003.0027.0024.0023.002.0018.0015.0013.0011.0008.0006.0004c.0001 0 .0001 0 .0001-.75s0-.75-.0001-.75-.0002 0-.0004 0c-.0001 0-.0003 0-.0006 0-.0002 0-.0005 0-.0008 0s-.0007 0-.0011 0-.0008 0-.0013 0-.001 0-.0015 0c-.0006 0-.0012 0-.0018 0s-.0013 0-.002 0-.0015 0-.0023 0c-.0007 0-.0016 0-.0024 0-.0009 0-.0018 0-.0027 0-.001 0-.002 0-.003 0s-.002 0-.0031 0-.0023 0-.0034 0c-.0012 0-.0024 0-.0036 0-.0013 0-.0026 0-.0039 0s-.0027 0-.0041 0-.0028 0-.0043 0c-.0014 0-.0029 0-.0045 0-.0015 0-.0031 0-.0047 0s-.0033 0-.005 0-.0034 0-.0051 0c-.0018 0-.0036 0-.0054 0-.0019 0-.0038 0-.0057 0s-.0038 0-.0058 0-.004 0-.0061 0c-.002 0-.0041 0-.0062 0-.0022 0-.0043 0-.0065 0s-.0044 0-.0067 0-.0046 0-.0069 0c-.0024 0-.0047 0-.0072 0-.0024 0-.0048 0-.0073 0s-.005 0-.0075 0c-.0026 0-.0052 0-.0078 0s-.0053 0-.008 0-.0054 0-.0081 0c-.0028 0-.0056 0-.0084 0-.0029 0-.0057 0-.0086 0s-.0059 0-.0088 0c-.003 0-.006 0-.009 0-.0031 0-.0061 0-.0092 0s-.0063 0-.0094 0c-.0032 0-.0064 0-.0096 0-.0033 0-.0065 0-.0098 0s-.0067 0-.0101 0c-.0033 0-.0067 0-.0102 0-.0034 0-.0069 0-.0104 0s-.007 0-.0106 0c-.0035 0-.0071 0-.0108 0-.0036 0-.0073 0-.011 0s-.0074 0-.0112 0c-.0037 0-.0075 0-.0113 0-.0039 0-.0077 0-.0116 0s-.0078 0-.0118 0-.0079 0-.012 0c-.004 0-.008 0-.0121 0s-.0082 0-.0123 0c-.0042 0-.0084 0-.0126 0s-.0084 0-.0127 0-.0086 0-.0129 0-.0087 0-.0131 0-.0088 0-.0133 0c-.0044 0-.0089 0-.0134 0s-.0091 0-.0137 0c-.0045 0-.0091 0-.0138 0-.0046 0-.0093 0-.014 0s-.0094 0-.0142 0c-.0047 0-.0095 0-.0143 0-.0049 0-.0097 0-.0146 0s-.0098 0-.0147 0-.0099 0-.0149 0-.01 0-.0151 0c-.005 0-.0101 0-.0152 0s-.0103 0-.0154 0c-.0052 0-.0104 0-.0156 0-.0053 0-.0105 0-.0158 0s-.0106 0-.016 0c-.0053 0-.0107 0-.0161 0s-.0108 0-.0162 0c-.0055 0-.011 0-.0165 0s-.011 0-.0166 0-.0112 0-.0168 0-.0113 0-.0169 0c-.0057 0-.0114 0-.0172 0-.0057 0-.0115 0-.0172 0-.0058 0-.0116 0-.0175 0-.0058 0-.0117 0-.0176 0s-.0118 0-.0178 0c-.0059 0-.0119 0-.0179 0s-.012 0-.0181 0c-.006 0-.0121 0-.0182 0s-.0123 0-.0184 0c-.0062 0-.0124 0-.0186 0s-.0124 0-.0187 0-.0126 0-.0189 0-.0126 0-.019 0-.0128 0-.0192 0-.0129 0-.0193 0c-.0065 0-.013 0-.0195 0s-.0131 0-.0197 0c-.0065 0-.0131 0-.0197 0-.0067 0-.0133 0-.02 0-.0066 0-.0133 0-.0201 0-.0067 0-.0134 0-.0202 0s-.0136 0-.0204 0-.0136 0-.0205 0-.0138 0-.0207 0-.0138 0-.0208 0c-.0069 0-.0139 0-.0209 0s-.0141 0-.0211 0c-.0071 0-.0142 0-.0213 0s-.0142 0-.0213 0c-.0072 0-.0144 0-.0216 0s-.0144 0-.0216 0c-.0073 0-.0145 0-.0218 0s-.0146 0-.0219 0c-.0074 0-.0147 0-.0221 0s-.0148 0-.0222 0-.0149 0-.0223 0c-.0075 0-.015 0-.0225 0s-.0151 0-.0226 0c-.0076 0-.0152 0-.0227 0-.0076 0-.0153 0-.0229 0-.0077 0-.0153 0-.023 0s-.0154 0-.0231 0c-.0078 0-.0155 0-.0233 0-.0077 0-.0155 0-.0233 0-.0079 0-.0157 0-.0235 0-.0079 0-.0158 0-.0237 0s-.0158 0-.0237 0c-.008 0-.0159 0-.0239 0s-.016 0-.024 0-.016 0-.0241 0-.0161 0-.0242 0-.0163 0-.0244 0-.0163 0-.0245 0-.0163 0-.0246 0c-.0082 0-.0164 0-.0247 0-.0082 0-.0165 0-.0248 0s-.0166 0-.0249 0c-.0084 0-.0167 0-.0251 0s-.0168 0-.0252 0-.0168 0-.0252 0c-.0085 0-.017 0-.0254 0-.0085 0-.017 0-.0255 0-.0086 0-.0171 0-.0257 0-.0085 0-.0171 0-.0257 0s-.0172 0-.0258 0-.0173 0-.0259 0c-.0087 0-.0174 0-.0261 0s-.0174 0-.0261 0c-.0088 0-.0175 0-.0263 0s-.0175 0-.0264 0c-.0088 0-.0176 0-.0264 0s-.0177 0-.0266 0c-.0088 0-.0177 0-.0266 0s-.0179 0-.0268 0-.0179 0-.0269 0c-.0089 0-.0179 0-.0269 0s-.018 0-.0271 0c-.009 0-.0181 0-.0271 0-.0091 0-.0182 0-.0273 0s-.0182 0-.0273 0-.0183 0-.0275 0c-.0091 0-.0183 0-.0275 0s-.0184 0-.0276 0-.0185 0-.0277 0c-.0093 0-.0185 0-.0278 0s-.0186 0-.0279 0-.0187 0-.028 0-.0187 0-.0281 0c-.0093 0-.0187 0-.0281 0s-.0188 0-.0283 0c-.0094 0-.0188 0-.0283 0-.0094 0-.0189 0-.0284 0s-.019 0-.0285 0-.019 0-.0286 0c-.0095 0-.019 0-.0286 0s-.0191 0-.0287 0-.0192 0-.0289 0c-.0096 0-.0192 0-.0288 0-.0097 0-.0193 0-.029 0s-.0194 0-.0291 0-.0194 0-.0291 0-.0194 0-.0292 0c-.0097 0-.0195 0-.0293 0-.0097 0-.0195 0-.0293 0s-.0196 0-.0294 0-.0197 0-.0295 0-.0197 0-.0296 0c-.0098 0-.0197 0-.0296 0s-.0198 0-.0297 0-.0198 0-.0298 0c-.0099 0-.0198 0-.0298 0-.0099 0-.0199 0-.0299 0s-.02 0-.03 0c-.0099 0-.02 0-.03 0s-.02 0-.0301 0c-.01 0-.0201 0-.0301 0-.0101 0-.0202 0-.0302 0-.0101 0-.0202 0-.0303 0s-.0202 0-.0303 0c-.0102 0-.0203 0-.0304 0-.0102 0-.0203 0-.0305 0s-.0203 0-.0305 0-.0204 0-.0306 0-.0204 0-.0306 0-.0204 0-.0307 0c-.0102 0-.0204 0-.0307 0-.0102 0-.0205 0-.0308 0-.0102 0-.0205 0-.0308 0s-.0206 0-.0309 0-.0206 0-.0309 0-.0207 0-.031 0-.0207 0-.031 0c-.0104 0-.0207 0-.0311 0s-.0207 0-.0311 0-.0208 0-.0312 0-.0208 0-.0312 0-.0208 0-.0313 0c-.0104 0-.0208 0-.0313 0-.0104 0-.0209 0-.0313 0-.0105 0-.0209 0-.0314 0s-.0209 0-.0314 0-.021 0-.0315 0-.021 0-.0315 0-.021 0-.0315 0-.0211 0-.0316 0-.0211 0-.0316 0-.0211 0-.0316 0c-.0106 0-.0212 0-.0317 0-.0106 0-.0212 0-.0317 0-.0106 0-.0212 0-.0318 0s-.0211 0-.0317 0-.0212 0-.0318 0c-.0107 0-.0213 0-.0319 0s-.0212 0-.0318 0c-.0107 0-.0213 0-.0319 0-.0107 0-.0213 0-.0319 0-.0107 0-.0213 0-.032 0-.0106 0-.0213 0-.032 0-.0106 0-.0213 0-.0319 0-.0107 0-.0214 0-.0321 0-.0106 0-.0213 0-.032 0s-.0214 0-.0321 0c-.0106 0-.0213 0-.032 0s-.0214 0-.0321 0-.0214 0-.0321 0c-.0108 0-.0215 0-.0322 0s-.0214 0-.0321 0-.0215 0-.0322 0-.0214 0-.0322 0c-.0107 0-.0214 0-.0322 0-.0107 0-.0214 0-.0322 0-.0107 0-.0215 0-.0322 0s-.0215 0-.0322 0c-.0108 0-.0215 0-.0323 0-.0107 0-.0215 0-.0322 0-.0108 0-.0215 0-.0323 0-.0107 0-.0215 0-.0323 0-.0107 0-.0215 0-.0322 0-.0108 0-.0216 0-.0323 0-.0108 0-.0215 0-.0323 0s-.0215 0-.0323 0-.0215 0-.0323 0-.0215 0-.0323 0c-.0107 0-.0215 0-.0323 0-.0107 0-.0215 0-.0323 0-.0107 0-.0215 0-.0323 0-.0107 0-.0215 0-.0323 0-.0107 0-.0215 0-.0323 0-.0107 0-.0215 0-.0323 0-.0107 0-.0215 0-.0323 0-.0107 0-.0215 0-.0322 0-.0108 0-.0216 0-.0323 0-.0108 0-.0215 0-.0323 0s-.0215 0-.0323 0c-.0107 0-.0215 0-.0322 0-.0108 0-.0215 0-.0323 0-.0107 0-.0215 0-.0322 0-.0108 0-.0215 0-.0322 0-.0108 0-.0215 0-.0323 0-.0107 0-.0214 0-.0322 0-.0107 0-.0214 0-.0321 0-.0108 0-.0215 0-.0322 0s-.0215 0-.0322 0-.0214 0-.0321 0-.0214 0-.0322 0c-.0107 0-.0214 0-.0321 0s-.0214 0-.032 0c-.0107 0-.0214 0-.0321 0s-.0214 0-.0321 0c-.0106 0-.0213 0-.032 0s-.0213 0-.032 0-.0213 0-.032 0c-.0106 0-.0213 0-.0319 0-.0107 0-.0213 0-.032 0-.0106 0-.0212 0-.0319 0-.0106 0-.0212 0-.0319 0-.0106 0-.0212 0-.0318 0s-.0212 0-.0318 0-.0212 0-.0318 0-.0212 0-.0318 0-.0211 0-.0317 0-.0211 0-.0317 0-.0211 0-.0317 0c-.0105 0-.0211 0-.0316 0s-.0211 0-.0316 0-.021 0-.0316 0c-.0105 0-.021 0-.0315 0s-.021 0-.0315 0c-.0104 0-.0209 0-.0314 0s-.021 0-.0314 0c-.0105 0-.0209 0-.0314 0-.0104 0-.0209 0-.0313 0s-.0209 0-.0313 0-.0208 0-.0312 0-.0208 0-.0312 0-.0208 0-.0312 0c-.0103 0-.0207 0-.0311 0-.0103 0-.0207 0-.031 0-.0104 0-.0207 0-.031 0-.0104 0-.0207 0-.031 0s-.0206 0-.0309 0-.0206 0-.0309 0-.0205 0-.0308 0-.0205 0-.0308 0c-.0102 0-.0204 0-.0307 0-.0102 0-.0204 0-.0306 0s-.0204 0-.0306 0-.0204 0-.0306 0c-.0101 0-.0203 0-.0304 0-.0102 0-.0203 0-.0305 0-.0101 0-.0202 0-.0303 0-.0102 0-.0203 0-.0304 0-.01 0-.0201 0-.0302 0s-.0201 0-.0302 0c-.01 0-.0201 0-.0301 0-.0101 0-.0201 0-.0301 0s-.02 0-.03 0-.02 0-.0299 0c-.01 0-.0199 0-.0299 0-.0099 0-.0199 0-.0298 0s-.0198 0-.0297 0-.0198 0-.0297 0-.0198 0-.0296 0c-.0099 0-.0197 0-.0295 0-.0099 0-.0197 0-.0295 0s-.0196 0-.0294 0-.0195 0-.0293 0-.0195 0-.0292 0c-.0098 0-.0195 0-.0292 0s-.0194 0-.0291 0-.0194 0-.029 0c-.0097 0-.0193 0-.029 0-.0096 0-.0192 0-.0288 0s-.0192 0-.0288 0-.0192 0-.0287 0c-.0096 0-.0191 0-.0286 0-.0096 0-.0191 0-.0286 0s-.019 0-.0284 0c-.0095 0-.019 0-.0284 0-.0095 0-.0189 0-.0283 0s-.0188 0-.0282 0-.0188 0-.0281 0c-.0094 0-.0187 0-.0281 0-.0093 0-.0186 0-.0279 0s-.0186 0-.0279 0c-.0092 0-.0185 0-.0277 0-.0093 0-.0185 0-.0277 0s-.0184 0-.0276 0-.0183 0-.0275 0c-.0091 0-.01826 0-.02738 0-.00911 0-.01822 0-.0273 0-.00909 0-.01816 0-.02721 0-.00906 0-.01809 0-.02712 0-.00902 0-.01802 0-.02701 0s-.01797 0-.02692 0c-.00896 0-.0179 0-.02683 0-.00892 0-.01783 0-.02672 0s-.01776 0-.02662 0-.0177 0-.02652 0-.01763 0-.02642 0-.01756 0-.02632 0c-.00875 0-.01749 0-.02621 0s-.01742 0-.0261 0c-.00869 0-.01736 0-.026 0-.00865 0-.01729 0-.0259 0s-.01721 0-.02579 0c-.00857 0-.01713 0-.02568 0-.00854 0-.01706 0-.02556 0-.00851 0-.017 0-.02546 0-.00847 0-.01692 0-.02535 0s-.01685 0-.02524 0-.01677 0-.02512 0c-.00836 0-.01669 0-.02501 0s-.01662 0-.0249 0-.01654 0-.02478 0-.01646 0-.02466 0-.01638 0-.02455 0c-.00816 0-.0163 0-.02442 0-.00813 0-.01623 0-.02431 0-.00809 0-.01615 0-.02419 0s-.01607 0-.02407 0-.01598 0-.02395 0c-.00796 0-.0159 0-.02382 0s-.01582 0-.0237 0-.01574 0-.02357 0c-.00784 0-.01566 0-.02345 0-.0078 0-.01558 0-.02333 0s-.01548 0-.0232 0c-.00771 0-.0154 0-.02306 0-.00767 0-.01532 0-.02294 0-.00763 0-.01523 0-.02281 0-.00759 0-.01514 0-.02268 0s-.01506 0-.02255 0-.01497 0-.02242 0c-.00744 0-.01487 0-.02228 0-.0074 0-.01478 0-.02214 0s-.0147 0-.02202 0c-.00731 0-.0146 0-.02187 0s-.01452 0-.02174 0c-.00723 0-.01443 0-.0216 0-.00718 0-.01433 0-.02147 0-.00713 0-.01423 0-.02132 0-.00708 0-.01414 0-.02118 0s-.01405 0-.02104 0-.01396 0-.0209 0-.01386 0-.02076 0c-.00689 0-.01376 0-.02061 0-.00684 0-.01367 0-.02046 0-.0068 0-.01357 0-.02032 0s-.01348 0-.02018 0-.01337 0-.02002 0-.01328 0-.01988 0-.01318 0-.01973 0-.01307 0-.01957 0c-.00651 0-.01298 0-.01943 0s-.01288 0-.01927 0c-.0064 0-.01278 0-.01913 0-.00634 0-.01267 0-.01896 0-.0063 0-.01257 0-.01881 0-.00625 0-.01247 0-.01866 0s-.01236 0-.0185 0-.01225 0-.01834 0-.01215 0-.01819 0c-.00603 0-.01204 0-.01802 0s-.01194 0-.01786 0c-.00593 0-.01183 0-.01771 0-.00587 0-.01172 0-.01754 0s-.01161 0-.01738 0c-.00576 0-.0115 0-.01721 0s-.01139 0-.01705 0-.01128 0-.01688 0-.01118 0-.01672 0c-.00555 0-.01106 0-.01655 0s-.01095 0-.01638 0c-.00544 0-.01084 0-.01622 0-.00537 0-.01072 0-.01604 0s-.01061 0-.01587 0-.0105 0-.0157 0c-.00521 0-.01038 0-.01553 0-.00514 0-.01026 0-.01535 0s-.01015 0-.01518 0-.01003 0-.015 0c-.00498 0-.00992 0-.01483 0s-.0098 0-.01465 0c-.00486 0-.00968 0-.01447 0-.0048 0-.00956 0-.0143 0-.00473 0-.00944 0-.01411 0s-.00932 0-.01393 0c-.00462 0-.0092 0-.01375 0-.00456 0-.00908 0-.01357 0s-.00895 0-.01339 0c-.00443 0-.00883 0-.0132 0-.00436 0-.0087 0-.01301 0s-.00858 0-.01283 0c-.00424 0-.00846 0-.01264 0s-.00834 0-.01246 0c-.00411 0-.0082 0-.01226 0s-.00808 0-.01208 0c-.00399 0-.00795 0-.01188 0s-.00783 0-.01169 0c-.00387 0-.0077 0-.0115 0-.00381 0-.00757 0-.01131 0s-.00744 0-.01112 0c-.00367 0-.00731 0-.01091 0-.00361 0-.00718 0-.01073 0-.00354 0-.00705 0-.01052 0-.00348 0-.00692 0-.01033 0s-.00678 0-.01013 0c-.00334 0-.00665 0-.00993 0-.00327 0-.00652 0-.00973 0s-.00638 0-.00952 0c-.00315 0-.00625 0-.00933 0-.00307 0-.00611 0-.00912 0s-.00598 0-.00892 0-.00584 0-.00871 0-.00571 0-.00851 0-.00557 0-.0083 0-.00543 0-.00809 0c-.00267 0-.0053 0-.00789 0s-.00515 0-.00767 0c-.00253 0-.00502 0-.00747 0s-.00487 0-.00725 0c-.00239 0-.00473 0-.00704 0-.00232 0-.00459 0-.00683 0s-.00445 0-.00662 0-.0043 0-.0064 0-.00416 0-.00618 0c-.00203 0-.00402 0-.00597 0zm0-4.75c0 .75.00003.75.00007.75h.00023.00089.00353.01397.05467.20887.75683 2.39844 4.5625v-1.49999c-.75 0-2.75 0-4.5625 0-.9063 0-1.76563 0-2.39844 0-.3164 0-.57617 0-.75683 0-.09034 0-.16089 0-.20887 0-.02398 0-.04232 0-.05467 0-.00617 0-.01084 0-.01397 0-.00157 0-.00275 0-.00354 0-.00039 0-.00069 0-.00088 0-.0001 0-.00018 0-.00023 0s-.00007 0-.00007.74999zm8 .75c.359 0 .6615-.159.88-.3152.227-.1624.4393-.3765.6333-.60504.3892-.45831.7838-1.0691 1.1557-1.71638.7476-1.3013 1.4691-2.86659 1.9448-3.95443l-1.3744-.60096c-.4694 1.07352-1.1649 2.579-1.8711 3.80813-.355.61792-.6965 1.13727-.9984 1.49278-.1514.17835-.2734.29211-.3625.35583-.0977.06985-.0932.03528-.0074.03528zm-12.65751-9.00772.47215 1.06233 1.37072-.60921-.47215-1.06233zm.47787 1.07489 3.5 7.50003 1.35928-.63436-3.5-7.5zm15.20264-1.06716-14.523-.00001v1.5l14.523.00001zm1.5908 2.40894c.5074-1.1605-.361-2.40894-1.5908-2.40894v1.5c.1851 0 .2758.17208.2164.30798zm-17.49976-2.56514c.0988 0 .18833.05818.22845.14847l1.37072-.60921c-.28088-.631975-.90759-1.039259-1.59917-1.039259z"/><g stroke="#000" stroke-width="1.5"><circle cx="7" cy="18" r="1.25"/><circle cx="17" cy="18" r="1.25"/></g></g></svg>