<svg width="24" height="24" viewBox="0 0 24 24" fill="none" xmlns="http://www.w3.org/2000/svg">
<path fill-rule="evenodd" clip-rule="evenodd" d="M17.7082 15C17.5094 15.6669 17.2111 16.3041 16.8203 16.889C16.0511 18.0401 14.9579 18.9373 13.6788 19.4671C12.3997 19.997 10.9922 20.1356 9.63437 19.8655C8.2765 19.5954 7.02922 18.9287 6.05026 17.9497C5.07129 16.9708 4.4046 15.7235 4.13451 14.3656C3.86441 13.0078 4.00303 11.6003 4.53285 10.3212C5.06266 9.04212 5.95987 7.94887 7.11101 7.1797C7.69594 6.78887 8.33309 6.49062 9 6.29178V12C9 13.6568 10.3432 15 12 15H17.7082ZM19.9445 13.9979C20.0057 13.4491 19.5523 13 19 13H12C11.4477 13 11 12.5523 11 12V4.99999C11 4.4477 10.5509 3.99424 10.002 4.05548C8.57508 4.21469 7.20175 4.7137 5.99987 5.51676C4.51983 6.50569 3.36628 7.9113 2.68509 9.55584C2.0039 11.2004 1.82567 13.01 2.17294 14.7558C2.5202 16.5016 3.37737 18.1053 4.63604 19.3639C5.89472 20.6226 7.49836 21.4798 9.24419 21.8271C10.99 22.1743 12.7996 21.9961 14.4442 21.3149C16.0887 20.6337 17.4943 19.4802 18.4832 18.0001C19.2863 16.7982 19.7853 15.4249 19.9445 13.9979Z" fill="#121D33"/>
<path fill-rule="evenodd" clip-rule="evenodd" d="M15 4.24185V8.95006L19.7082 8.95006C19.6397 8.72024 19.5593 8.49367 19.4672 8.27128C19.1154 7.422 18.5998 6.65032 17.9497 6.00031C17.2997 5.3503 16.5281 4.83468 15.6788 4.4829C15.4564 4.39078 15.2298 4.31037 15 4.24185ZM13.998 2.00556C13.4491 1.94432 13 2.39777 13 2.95006V9.95006C13 10.5023 13.4477 10.9501 14 10.9501L21 10.9501C21.5523 10.9501 22.0057 10.501 21.9445 9.95211C21.8509 9.11282 21.6394 8.28919 21.3149 7.50591C20.8626 6.41398 20.1997 5.42183 19.364 4.5861C18.5282 3.75037 17.5361 3.08743 16.4442 2.63514C15.6609 2.3107 14.8372 2.0992 13.998 2.00556Z" fill="#121D33"/>
</svg>
