<svg width="24" height="24" viewBox="0 0 24 24" fill="none" xmlns="http://www.w3.org/2000/svg">
<path fill-rule="evenodd" clip-rule="evenodd" d="M6.70711 5.29289C6.31658 4.90237 5.68342 4.90237 5.29289 5.29289C4.90237 5.68342 4.90237 6.31658 5.29289 6.70711L10.5858 12L5.29289 17.2929C4.90237 17.6834 4.90237 18.3166 5.29289 18.7071C5.68342 19.0976 6.31658 19.0976 6.70711 18.7071L12.7071 12.7071C13.0976 12.3166 13.0976 11.6834 12.7071 11.2929L6.70711 5.29289ZM12 17C11.4477 17 11 17.4477 11 18C11 18.5523 11.4477 19 12 19H18C18.5523 19 19 18.5523 19 18C19 17.4477 18.5523 17 18 17H12Z" fill="#121D33"/>
</svg>
