<svg width="24" height="24" viewBox="0 0 24 24" fill="none" xmlns="http://www.w3.org/2000/svg">
<path fill-rule="evenodd" clip-rule="evenodd" d="M9 17C9 15.8954 9.89543 15 11 15H13C14.1046 15 15 15.8954 15 17V20C15 21.1046 14.1046 22 13 22H11C9.89543 22 9 21.1046 9 20V17ZM13 17H11V20H13V17Z" fill="#121D33"/>
<path fill-rule="evenodd" clip-rule="evenodd" d="M16 11C16 9.89543 16.8954 9 18 9H20C21.1046 9 22 9.89543 22 11V20C22 21.1046 21.1046 22 20 22H18C16.8954 22 16 21.1046 16 20V11ZM20 11L18 11V20H20V11Z" fill="#121D33"/>
<path fill-rule="evenodd" clip-rule="evenodd" d="M2 14C2 12.8954 2.89543 12 4 12H6C7.10457 12 8 12.8954 8 14V20C8 21.1046 7.10457 22 6 22H4C2.89543 22 2 21.1046 2 20V14ZM6 14H4V20H6V14Z" fill="#121D33"/>
<path fill-rule="evenodd" clip-rule="evenodd" d="M21.832 2.44541C22.1384 2.90493 22.0142 3.5258 21.5547 3.83216L12.5547 9.83216C12.2979 10.0033 11.9765 10.0464 11.6838 9.94879L2.68377 6.94879C2.15983 6.77414 1.87667 6.20782 2.05131 5.68388C2.22596 5.15994 2.79228 4.87678 3.31622 5.05142L11.8522 7.89676L20.4453 2.16806C20.9048 1.8617 21.5257 1.98588 21.832 2.44541Z" fill="#121D33"/>
</svg>
