<svg width="24" height="24" viewBox="0 0 24 24" fill="none" xmlns="http://www.w3.org/2000/svg">
<path fill-rule="evenodd" clip-rule="evenodd" d="M14 20V15C14 14.4477 13.5523 14 13 14H11C10.4477 14 10 14.4477 10 15V20H14ZM5.00001 22C3.34521 22 2 20.662 2.00001 19.0031L2.00003 10.4743C2.00003 9.54647 2.42909 8.67717 3.15821 8.11008L10.1582 2.66563C11.2415 1.82304 12.7585 1.82304 13.8419 2.66564L20.8419 8.11008C21.573 8.67876 22 9.55379 22 10.4791V18.9995C22 20.6561 20.6572 22 19 22H5.00001Z" fill="#121D33"/>
</svg>
