<svg width="24" height="24" viewBox="0 0 24 24" fill="none" xmlns="http://www.w3.org/2000/svg">
<path fill-rule="evenodd" clip-rule="evenodd" d="M7 9.5C7 8.11929 8.11929 7 9.5 7C10.8807 7 12 8.11929 12 9.5C12 10.8807 10.8807 12 9.5 12C8.11929 12 7 10.8807 7 9.5ZM9.5 9C9.22386 9 9 9.22386 9 9.5C9 9.77614 9.22386 10 9.5 10C9.77614 10 10 9.77614 10 9.5C10 9.22386 9.77614 9 9.5 9Z" fill="#121D33"/>
<path fill-rule="evenodd" clip-rule="evenodd" d="M13.2698 2.34027C12.4841 1.88658 11.5159 1.88658 10.7302 2.34027L4.26978 6.07042C3.48402 6.52411 3 7.36253 3 8.26985V15.7301C3 16.6375 3.48402 17.4759 4.26978 17.9296L10.7302 21.6597C11.5159 22.1134 12.4841 22.1134 13.2698 21.6597L19.7302 17.9296C20.516 17.4759 21 16.6375 21 15.7301V8.26985C21 7.36253 20.516 6.52411 19.7302 6.07042L13.2698 2.34027ZM11.7302 4.07229C11.8972 3.9759 12.1028 3.9759 12.2698 4.07229L18.7302 7.80244C18.8971 7.89884 19 8.077 19 8.26985V11.5858L16.7071 9.29289C16.3166 8.90237 15.6834 8.90237 15.2929 9.29289L7.24677 17.339L5.26982 16.1976C5.10288 16.1012 5 15.923 5 15.7301V8.26985C5 8.077 5.10288 7.89884 5.26982 7.80244L11.7302 4.07229ZM9.03988 18.3743L11.7302 19.9277C11.8972 20.0241 12.1028 20.0241 12.2698 19.9277L18.7302 16.1976C18.8971 16.1012 19 15.923 19 15.7301V14.4142L16 11.4142L9.03988 18.3743Z" fill="#121D33"/>
</svg>
