<svg width="24" height="24" viewBox="0 0 24 24" fill="none" xmlns="http://www.w3.org/2000/svg">
<path fill-rule="evenodd" clip-rule="evenodd" d="M14.6763 4.0621C15.3252 3.84006 16 4.32236 16 5.00825V5.04716C16 5.59945 16.4477 6.04716 17 6.04716C17.5523 6.04716 18 5.59945 18 5.04716V5.00825C18 2.95057 15.9757 1.50367 14.0288 2.16979L4.02882 5.5913C2.81533 6.0065 2 7.1472 2 8.42975V19.0002C2 20.6571 3.34315 22.0002 5 22.0002H19C20.6569 22.0002 22 20.6571 22 19.0002V10.0002C22 8.34337 20.6569 7.00023 19 7.00023H6.08903L14.6763 4.0621ZM4 19.0002V10.0002C4 9.44794 4.44772 9.00023 5 9.00023H19C19.5523 9.00023 20 9.44794 20 10.0002V19.0002C20 19.5525 19.5523 20.0002 19 20.0002H5C4.44772 20.0002 4 19.5525 4 19.0002ZM16.5 16C17.3284 16 18 15.3284 18 14.5C18 13.6716 17.3284 13 16.5 13C15.6716 13 15 13.6716 15 14.5C15 15.3284 15.6716 16 16.5 16Z" fill="#121D33"/>
</svg>
